<svg xmlns="http://www.w3.org/2000/svg" xmlns:xlink="http://www.w3.org/1999/xlink" width="1142" height="552" viewBox="0 0 302 146"><style><![CDATA[.B{fill:#282d33}.C{fill:#84dbff}.D{fill:#ffd23d}.E{fill:#ababab}]]></style><path d="M289.396 53.686h-27.87v-17.99h27.87v17.99" class="E"/><path d="M275.46 47.5L261.08 37.114l.826-1.143 13.556 9.8 13.556-9.8.826 1.143L275.46 47.5" class="B"/><path d="M121.3 106.982v2.873h5.83v-2.873h-5.83m8.203-3.24v6.114h5.83v-6.114h-5.83m8.19-5.302v11.416h5.83V98.44h-5.83m8.2-8.187v19.602h5.83V90.253h-5.83" class="E"/><path d="M203.943 102.23l-9.83 3.194c.938 1.847 2.293 3.452 4.035 4.78l5.795-7.975" class="D"/><path d="M206.376 98.732V81.764a16.22 16.22 0 0 0-4.96.839 17.13 17.13 0 0 0-10.034 8.57c-2.035 3.995-2.437 8.527-1.145 12.806l16.14-5.246m.37 14.38c3.768 0 7.313-1.468 9.976-4.132 5.504-5.504 5.504-14.46-.001-19.966-2.222-2.224-4.836-3.566-7.773-3.995v14.714l-.797 1.077-7.82 10.765c1.975 1.007 4.183 1.537 6.414 1.537" class="E"/><path d="M155.85 84.364h-1.41V77.82h5.713a2.46 2.46 0 0 0 2.455-2.456V70.03h2.207l-3.28-5.685.01-.205.013-.5c0-6.075-4.943-11.018-11.02-11.018S139.52 57.565 139.52 63.64a10.95 10.95 0 0 0 3.219 7.783l.206.206v12.734h-1.41V72.208a12.35 12.35 0 0 1-3.425-8.568c0-6.853 5.576-12.43 12.43-12.43s12.43 5.576 12.43 12.43a10.37 10.37 0 0 1-.006.353l4.3 7.448h-3.24v3.923c0 2.132-1.735 3.867-3.866 3.867h-4.302v5.132" class="B"/><path d="M34.59 51.85H15.94v37.042h24.695V57.9L34.59 51.85" class="E"/><path d="M34.586 58.15h6.298l-6.298-6.3z" class="C"/><path d="M19.945 61.06H13.1v-1.4h6.856v1.4m9.3 2.977H12.964v-1.4h16.282v1.4m0 2.977H12.964v-1.4h16.282v1.4m0 2.978H12.964v-1.4h16.282v1.4M23.5 72.97H12.964v-1.4H23.5v1.4" class="B"/><path d="M52.992 69.964l-3.58 11.574h7.065zm7.065 23.473l-1.44-4.602H47.18l-1.44 4.602H34.585l12.55-32.815H58.94L71.2 93.437H60.057m33.933 0L83.066 74.38l.093 19.057H73.5V60.622h11.016l11.1 19.104-.14-19.104h9.714v32.815H94m31.643-23.473l-3.58 11.574h7.065zm7.065 23.473l-1.44-4.602h-11.434l-1.44 4.602h-11.156l12.55-32.815h11.806l12.27 32.815H132.7m13.433 0V60.622h10.365v24.542h12.7v8.274h-23.054m42.11-13.806v13.805h-10.412V79.632l-13.154-19h11.992l6.46 10.923 6.322-10.923h11.992l-13.2 19m38.44 11.76c-4.23 3.114-9.76 3.02-11.155 3.02-4.788 0-9.343-.8-13.247-3.718-1.487-1.116-2.37-2.092-3.486-3.533l7.948-5.066c.697 1.115 1.115 1.627 1.58 1.998 1.86 1.627 5.3 2.324 7.576 2.324 2.928 0 4.973-.883 4.973-2.5 0-.372-.186-.65-.232-.8-.232-.465-.604-.883-1.58-1.208-1.162-.418-3.253-.697-6.182-1.302-4.508-.883-6.926-2-8.506-3.393-1.023-.883-2.882-3.068-2.835-6.647 0-.883.046-2.882 1.208-4.974 3.347-6.135 12.04-6.042 13.294-6.042 1.673 0 7.576.093 12.27 3.532 1.022.744 1.627 1.395 2.5 2.277l-6.554 5.44c-.418-.558-.65-.837-.93-1.07-1.906-1.766-5.206-2.277-7.67-2.277-.232 0-1.487 0-2.463.418-.186.093-1.302.604-1.302 1.72 0 .604.372 1.162.837 1.487.837.5 2.8.883 3.672 1.023 1.162.186 4.23.604 7.483 1.674 2.045.65 7.112 2.463 7.112 9.017 0 4.88-2.882 7.53-4.323 8.6m7.73 2.045V60.622h10.412v32.815h-10.412m40.717-2.045c-4.23 3.114-9.76 3.02-11.155 3.02-4.788 0-9.343-.8-13.247-3.718-1.487-1.116-2.37-2.092-3.486-3.533l7.948-5.066c.697 1.115 1.115 1.627 1.58 1.998 1.86 1.627 5.3 2.324 7.576 2.324 2.928 0 4.974-.883 4.974-2.5 0-.372-.186-.65-.232-.8-.232-.465-.604-.883-1.58-1.208-1.162-.418-3.254-.697-6.182-1.302-4.508-.883-6.926-2-8.506-3.393-1.023-.883-2.882-3.068-2.835-6.647 0-.883.046-2.882 1.208-4.974 3.347-6.135 12.04-6.042 13.294-6.042 1.673 0 7.576.093 12.27 3.532 1.022.744 1.627 1.395 2.5 2.277l-6.554 5.44c-.418-.558-.65-.837-.93-1.07-1.906-1.766-5.206-2.277-7.67-2.277-.232 0-1.487 0-2.463.418-.186.093-1.302.604-1.302 1.72 0 .604.372 1.162.837 1.487.837.5 2.8.883 3.672 1.023 1.162.186 4.23.604 7.483 1.674 2.045.65 7.112 2.463 7.112 9.017 0 4.88-2.882 7.53-4.323 8.6" class="C"/><g class="B"><path d="M131.275 116.778h-1.41v-1.41h1.41v1.41"/><use xlink:href="#B"/><path d="M125.366 122.687h-1.4v-1.4h1.4v1.4m1.034 4.47l-.997-.998.998-.997.997.998-.998.997m4.875 1.44h-1.4v-1.4h1.4v1.4"/><use xlink:href="#B" x="8.356" y="8.357"/><path d="M137.184 122.687h-1.41v-1.41h1.41v1.41"/><use xlink:href="#B" x="8.356"/><path d="M208.36 79.3h-5.004a3.87 3.87 0 0 1-3.865-3.866v-3.92h-3.24l4.298-7.443-.007-.355.032-.894 1.408.1-.03.792.013.5.01.206-3.28 5.682h2.206v5.332a2.46 2.46 0 0 0 2.454 2.455h5.004v1.4m47 8.72h-1.4v-2.756h1.4v2.756m5.163 1.77l-1.222-.706 1.378-2.387 1.222.706-1.378 2.387m3.588 4.108l-.706-1.222 2.387-1.378.706 1.22-2.387 1.38m3.803 5.35h-2.757v-1.4h2.757v1.4m-2.13 6.54l-2.388-1.378.706-1.222 2.388 1.378-.706 1.222m-5.115 4.598l-1.378-2.387 1.222-.706 1.378 2.387-1.222.706m-5.318 1.424h-1.4v-2.755h1.4v2.755m-6.73-1.423l-1.222-.706 1.38-2.387L250 108l-1.38 2.387m-5.114-4.6l-.705-1.222 2.387-1.377.705 1.222-2.387 1.377m.626-6.54h-2.756v-1.4h2.756v1.4m1.055-5.35l-2.386-1.38.706-1.22 2.386 1.378-.706 1.222m3.6-4.117l-1.378-2.388 1.222-.705 1.38 2.4-1.222.705m5.867 8.63c-.02 0-.06.005-.092.04-.047.053-.042.13.01.176l.08.03c.026 0 .063-.007.094-.042l.03-.1-.04-.085zm-.001 1.66a1.5 1.5 0 0 1-1.022-.4 1.54 1.54 0 0 1-.121-2.169c.3-.325.708-.512 1.144-.512a1.53 1.53 0 0 1 1.533 1.451c.024.4-.116.804-.4 1.1a1.54 1.54 0 0 1-1.144.511"/><path d="M255.723 98.384l-1.052-.94 5.774-6.457 1.052.94-5.774 6.457m-1.908.348l-5.686-5.085.94-1.052 5.686 5.085-.94 1.052"/></g><path d="M211.103 109.17h25.674v-5.484h-25.674v5.484" class="C"/><g class="B"><path d="M236.77 125.354H211.1V109.18h1.4v14.764h22.836V109.18h1.4v16.175m-20.07-19.058h-1.4v-4.764h1.4v4.764m15.93 0h-1.4v-4.764h1.4v4.764"/><use xlink:href="#C"/><use xlink:href="#C" x="2.573"/><use xlink:href="#C" x="5.145"/><use xlink:href="#C" x="7.717"/><use xlink:href="#C" x="10.289"/><use xlink:href="#C" x="12.863"/><use xlink:href="#C" x="15.433"/><use xlink:href="#C" y="2.645"/><use xlink:href="#C" x="2.573" y="2.645"/><use xlink:href="#C" x="5.145" y="2.645"/><use xlink:href="#C" x="7.717" y="2.645"/><use xlink:href="#C" x="10.289" y="2.645"/><use xlink:href="#C" x="12.863" y="2.645"/><use xlink:href="#C" x="15.433" y="2.645"/><use xlink:href="#C" y="5.29"/><use xlink:href="#C" x="2.573" y="5.29"/><use xlink:href="#C" x="5.145" y="5.29"/><use xlink:href="#C" x="7.717" y="5.29"/><use xlink:href="#C" x="10.289" y="5.29"/><use xlink:href="#C" x="12.863" y="5.29"/><use xlink:href="#C" x="15.433" y="5.29"/><use xlink:href="#C" y="7.937"/><use xlink:href="#C" x="2.573" y="7.937"/><use xlink:href="#C" x="5.145" y="7.937"/><use xlink:href="#C" x="7.717" y="7.937"/><use xlink:href="#C" x="10.289" y="7.937"/><use xlink:href="#C" x="12.863" y="7.937"/><use xlink:href="#C" x="15.433" y="7.937"/></g><path d="M189.237 51.053c0-.543.258-1.025.656-1.333.115-.092.2-.23.2-.39 0-.258-.196-.467-.446-.494h-3.854V38.56h10.278v4l-.032.06-.004.01-.04.055-.003.004c-.026.03-.056.06-.088.082l-.017.013-.035.02-.04.02-.033.013-.052.016-.03.007-.088.008c-.158 0-.297-.076-.39-.19a1.68 1.68 0 0 0-1.331-.656c-.93 0-1.685.756-1.685 1.685s.755 1.686 1.685 1.686a1.68 1.68 0 0 0 1.332-.657c.092-.115.23-.2.388-.2l.088.01.03.007.052.015.033.014.04.02.035.02.017.013a.52.52 0 0 1 .088.083l.003.004.037.054.005.008.032.062v3.992h-3.854c-.25.027-.446.236-.446.494 0 .157.075.297.2.39.398.308.657.8.657 1.333 0 .93-.755 1.686-1.685 1.686s-1.685-.755-1.685-1.686" class="C"/><g class="B"><path d="M203.32 59.093l-1.28-.593a12.47 12.47 0 0 1 11.28-7.208c3.555 0 6.947 1.528 9.305 4.192l-1.057.935a11.02 11.02 0 0 0-8.25-3.716 11.06 11.06 0 0 0-9.999 6.39m4.524 13.444l-3.938-3.94 3.938-3.94.998.998-2.94 2.943 2.94 2.94-.998.998"/><path d="M205.837 69.304v-1.4l12.472-.002v1.4l-12.472.002m4.1-4.552l-.998-.998 2.94-2.943-2.94-2.942.998-.998 3.938 3.94-3.938 3.94"/><path d="M189 61.518v-1.41l22.962-.001v1.41L189 61.518"/></g><path d="M283.198 77.742" class="C"/><path d="M287.09 78.448h-3.893v-1.41h3.893v1.41" class="B"/><path d="M283.198 74.595" class="C"/><use xlink:href="#D" class="B"/><path d="M283.198 71.447" class="C"/><use xlink:href="#D" y="-3.147" class="B"/><path d="M283.198 68.3" class="C"/><use xlink:href="#D" y="-6.294" class="B"/><path d="M283.198 65.152" class="C"/><use xlink:href="#D" y="-9.442" class="B"/><path d="M283.198 62.006" class="C"/><path d="M287.09 62.71h-3.893V61.3h3.893v1.41" class="B"/><path d="M283.198 58.858" class="C"/><use xlink:href="#D" y="-15.737" class="B"/><path d="M283.198 55.7" class="C"/><use xlink:href="#D" y="-18.884" class="B"/><path d="M283.198 52.564" class="C"/><use xlink:href="#D" y="-22.03" class="B"/><path d="M283.198 49.415" class="C"/><path d="M285.7 50.12h-2.492V48.7h2.492v1.41" class="B"/><path d="M283.198 46.27" class="C"/><path d="M287.1 46.975h-3.893v-1.4h3.893v1.4m-50.504-20.822l-.128-1.408 1.46-.067.004 1.4-1.335.064zm3.996.166l-1.325-.173.12-1.408 1.45.2zm-6.62.314l-.377-1.362 1.426-.328.253 1.4-1.3.3zm9.194.385l-1.272-.4.37-1.362 1.393.448zm-11.7.557l-.615-1.27 1.343-.58.5 1.32-1.227.53zm14.096.596l-1.177-.632.6-1.274 1.3.7zm-16.384.78l-.832-1.143 1.218-.808.727 1.2-1.113.74zm18.548.783l-1.046-.83.826-1.146 1.146.9zm-20.555.977l-1.02-.974 1.055-1.012.93 1.058-.964.928zm22.406.945l-.883-1.002 1.017-.977.966 1.097zM225.5 32.8l-1.178-.78.858-1.182 1.104.878-.785 1.083zm25.547 1.08l-.7-1.143 1.175-.783.755 1.252zm-26.8 1.27l-1.298-.554.634-1.32 1.244.67-.58 1.203zm27.866 1.178l-.472-1.25 1.296-.557.518 1.37zM223.438 37.7l-1.377-.3.386-1.4 1.343.434-.352 1.288zm29.285 1.238l-.24-1.312 1.375-.318.264 1.44zm-29.636 1.406l-1.4-.06.127-1.456 1.4.183-.116 1.332zm31.173 1.32l-1.4-.058.013-.62-.017-.718 1.4-.066.018.784-.014.677zM221.8 43.2l-.132-1.455 1.4-.065.12 1.33zm32.07 1.358l-1.377-.308.232-1.315 1.4.182-.254 1.44zm-31.417 1.5l-.4-1.4 1.376-.314.356 1.286zm30.526 1.293l-1.3-.55.464-1.252 1.344.43-.5 1.372zm-29.373 1.4l-.637-1.315 1.296-.557.582 1.202zm27.997 1.188l-1.18-.774.682-1.15 1.245.664-.746 1.26zm-26.383 1.247l-.86-1.18 1.176-.78.787 1.08zm24.57 1.044l-1.024-.97.875-1 1.107.876-.958 1.105zm-22.548 1.065l-1.058-1 1.018-.977.967.923zm20.357.868l-.836-1.137 1.04-.84.933 1.058-1.138.917zm-17.993.85l-1.22-.805.83-1.142 1.115.736zm15.493.66l-.618-1.268 1.173-.64.73 1.208-1.284.7zm-12.86.607l-1.345-.574.612-1.272 1.23.525zm10.127.43l-.38-1.36 1.268-.417.502 1.32-1.4.457zm-7.3.343l-1.427-.324.375-1.36 1.3.295zm4.436.187l-.13-1.405 1.323-.183.256 1.387-1.45.2zm-1.462.07h-.065a16.89 16.89 0 0 1-1.46-.064l.124-1.406 1.335.06h.065v1.4" class="B"/><path d="M237.96 47.614a6.64 6.64 0 0 1-6.638-6.635c0-3.664 2.97-6.63 6.638-6.63a6.63 6.63 0 0 1 6.63 6.631c0 3.664-2.965 6.635-6.63 6.635" class="D"/><g class="B"><path d="M232.7 33.148a1.82 1.82 0 0 0-1.816 1.817v3.443a1.82 1.82 0 0 0 1.816 1.816 1.82 1.82 0 0 0 1.818-1.816v-3.443a1.82 1.82 0 0 0-1.818-1.817zm0 8.487a3.23 3.23 0 0 1-3.228-3.227v-3.443c0-1.778 1.448-3.228 3.228-3.228s3.23 1.45 3.23 3.228v3.443a3.23 3.23 0 0 1-3.23 3.227m10.52.103a1.82 1.82 0 0 0-1.817 1.817v3.44a1.82 1.82 0 0 0 1.817 1.816 1.82 1.82 0 0 0 1.818-1.816v-3.44a1.82 1.82 0 0 0-1.818-1.817zm0 8.484a3.23 3.23 0 0 1-3.228-3.227v-3.44c0-1.78 1.448-3.228 3.228-3.228s3.23 1.448 3.23 3.228v3.44c0 1.78-1.45 3.227-3.23 3.227m2.672-12.9l-.002-4.276h-4.276v-1.4h5.686l.002 5.687h-1.4"/><path d="M229.814 50.122l-.998-.998 17.21-17.21.998.998-17.21 17.2"/></g><path d="M144.093 37.45c1.652 1.653 1.652 4.333 0 5.985a4.23 4.23 0 0 1-5.985 0c-1.653-1.652-1.653-4.332 0-5.985s4.332-1.65 5.985 0zm-11.086-8.135l-2.698 2.695 2.2 2.6a10.33 10.33 0 0 0-1.505 3.397l-3.495.29v3.816l3.4.282c.23 1.21.678 2.383 1.34 3.464l-2.265 2.678 2.698 2.698 2.597-2.198a10.32 10.32 0 0 0 3.396 1.504l.3 3.495h3.816l.283-3.4c1.208-.23 2.383-.678 3.464-1.34l2.678 2.266 2.698-2.697-2.198-2.598a10.33 10.33 0 0 0 1.504-3.396l3.495-.29.001-3.817-3.39-.282c-.23-1.2-.678-2.38-1.34-3.464l2.266-2.678-2.697-2.7-2.598 2.198a10.42 10.42 0 0 0-3.396-1.503l-.29-3.496h-3.815l-.283 3.4a10.43 10.43 0 0 0-3.464 1.341l-2.678-2.265" class="E"/><g class="B"><path d="M10.24 88.528a1.35 1.35 0 0 0-1.346 1.347 1.35 1.35 0 0 0 1.346 1.345 1.35 1.35 0 0 0 1.346-1.345 1.35 1.35 0 0 0-1.346-1.347zm0 4.104a2.76 2.76 0 0 1-2.757-2.757 2.76 2.76 0 0 1 2.757-2.758 2.76 2.76 0 0 1 2.757 2.758 2.76 2.76 0 0 1-2.757 2.757"/><path d="M10.945 94.308h-1.4v-1.94h1.4v1.94m0-6.928h-1.4v-1.94h1.4v1.94m2.782 5.323l-1.68-.97.706-1.222 1.68.97-.706 1.222m-6-3.465l-1.68-.97.706-1.222 1.68.97-.706 1.222m5.025 0l-.706-1.222 1.68-.97.706 1.222-1.68.97m-6 3.465l-.706-1.222 1.68-.97.706 1.222-1.68.97m28.4 6.367h-.706v-1.4h.706v1.4M14.5 82.148h-1.416v-1.4H14.5zm2.83 0h-1.416v-1.4h1.416zm2.83 0h-1.416v-1.4h1.416zm2.83 0h-1.416v-1.4H23zm2.83 0h-1.4v-1.4h1.416zm2.83 0h-1.4v-1.4h1.416zm2.83 0h-1.4v-1.4h1.416zm2.83 0h-1.416v-1.4H34.3zm2.83 0h-1.415v-1.4h1.415zm2.83 0h-1.415v-1.4h1.415zm2.83 0h-1.416v-1.4H42.8zm2.83 0h-1.416v-1.4h1.416zm2.83 0h-1.415v-1.4h1.415zm2.83 0h-1.4v-1.4h1.415zm2.83 0h-1.4v-1.4h1.416zm2.83 0h-1.4v-1.4h1.416zm2.83 0h-1.416v-1.4h1.416zm2.83 0h-1.415v-1.4H62.6zm2.83 0h-1.416v-1.4h1.416zm2.83 0h-1.415v-1.4h1.415zm-57.987.02l-.102-1.408.67-.024h.795v1.4h-.795l-.57.02zm-2.507.613l-.56-1.295a9.11 9.11 0 0 1 1.453-.488l.335 1.37a7.67 7.67 0 0 0-1.227.412zM5.6 84.187l-.954-1.04a9.29 9.29 0 0 1 1.21-.937l.77 1.183a7.86 7.86 0 0 0-1.025.794zm-1.588 2.038l-1.242-.67a9.19 9.19 0 0 1 .838-1.282l1.113.868a7.93 7.93 0 0 0-.71 1.085zm-.83 2.445L1.8 88.447a9.04 9.04 0 0 1 .368-1.488l1.336.453a7.71 7.71 0 0 0-.311 1.257zm-1.37 2.828a9.24 9.24 0 0 1-.138-1.524l1.4-.01a7.83 7.83 0 0 0 .117 1.291zm1.024 2.876a9.06 9.06 0 0 1-.633-1.394l1.33-.473a7.74 7.74 0 0 0 .535 1.179zm1.9 2.378a10.03 10.03 0 0 1-1.054-1.1l1.1-.884a7.78 7.78 0 0 0 .894.94zm2.586 1.624a9.18 9.18 0 0 1-1.361-.703l.75-1.195a7.8 7.8 0 0 0 1.152.595zm2.977.68c-.5-.03-1.02-.1-1.517-.214l.314-1.376a7.68 7.68 0 0 0 1.282.182zm2.87.015h-1.416v-1.4h1.416zm2.83 0h-1.4v-1.4h1.416zm2.83 0h-1.4v-1.4h1.416zm2.83 0H20.3v-1.4h1.415zm2.83 0h-1.416v-1.4h1.416zm2.83 0h-1.415v-1.4h1.415zm2.83 0h-1.416v-1.4H30.2zm2.83 0h-1.416v-1.4H33v1.4m37.43-16.923h-.706v-1.4h.706v1.4M236.647 99.07h-.706v-1.4h.706v1.4m-107.987 0h-1.393v-1.4h1.393zm2.786 0h-1.393v-1.4h1.393zm2.787 0h-1.393v-1.4h1.393zm2.787 0h-1.393v-1.4h1.393zm2.786 0h-1.393v-1.4h1.393zm2.787 0H141.2v-1.4h1.393zm2.787 0h-1.393v-1.4h1.393zm2.787 0h-1.393v-1.4h1.393zm2.787 0h-1.393v-1.4h1.393zm2.786 0h-1.393v-1.4h1.393zm2.787 0h-1.393v-1.4h1.393zm2.787 0h-1.393v-1.4h1.393zm2.786 0h-1.393v-1.4h1.393zm2.787 0h-1.393v-1.4h1.393zm2.787 0h-1.393v-1.4h1.393zm2.787 0h-1.393v-1.4h1.393zm2.787 0h-1.393v-1.4h1.393zm2.786 0h-1.393v-1.4h1.393zm2.787 0h-1.393v-1.4h1.393zm2.786 0h-1.393v-1.4h1.393zm2.787 0H183v-1.4h1.393zm2.787 0h-1.393v-1.4h1.393zm2.787 0h-1.393v-1.4h1.393zm2.787 0h-1.393v-1.4h1.393zm2.786 0h-1.393v-1.4h1.393zm2.787 0h-1.393v-1.4h1.393zm2.787 0h-1.393v-1.4h1.393zm2.786 0h-1.393v-1.4h1.393zm2.787 0H205.3v-1.4h1.393zm2.787 0h-1.393v-1.4h1.393zm2.787 0h-1.393v-1.4h1.393zm2.787 0h-1.393v-1.4h1.393zm2.786 0h-1.393v-1.4h1.393zm2.787 0h-1.393v-1.4h1.393zm2.787 0h-1.393v-1.4h1.393zm2.786 0h-1.393v-1.4h1.393zm2.787 0h-1.393v-1.4h1.393zm2.787 0h-1.393v-1.4h1.393zm2.787 0h-1.393v-1.4h1.393v1.4m-108.682 0h-.706v-1.4h.706v1.4M198.9 82.147h-.706v-1.4h.706v1.4m-14.273 0h-1.507v-1.4h1.507zm3.015 0h-1.507v-1.4h1.507zm3.014 0h-1.507v-1.4h1.507zm3.015 0h-1.507v-1.4h1.507zm3.014 0h-1.507v-1.4h1.507v1.4m-15.072 0h-.706v-1.4h.706v1.4m-53.27 0h-.706v-1.4h.706v1.4"/><path d="M111.518 82.147h-1.465v-1.4h1.465zm2.93 0h-1.466v-1.4h1.466zm2.93 0h-1.465v-1.4h1.465zm2.93 0h-1.465v-1.4h1.465zm2.93 0h-1.465v-1.4h1.465zm2.93 0h-1.465v-1.4h1.465v1.4m-17.58 0h-.706v-1.4h.706v1.4M268.05 99.07h-.706v-1.4h.706v1.4m-32.43-16.922h-1.415v-1.4h1.415zm2.83 0h-1.415v-1.4h1.415zm2.83 0h-1.416v-1.4h1.416zm2.83 0h-1.4v-1.4h1.415zm2.83 0h-1.415v-1.4h1.415zm2.83 0h-1.416v-1.4h1.416zm2.83 0h-1.416v-1.4h1.416zm2.83 0h-1.415v-1.4h1.415zm2.83 0h-1.415v-1.4h1.415zm2.83 0h-1.416v-1.4h1.416zm2.83 0h-1.416v-1.4h1.416zm2.83 0h-1.415v-1.4h1.415zm2.83 0h-1.415v-1.4h1.415zm2.83 0H271v-1.4h1.416zm2.83 0h-1.416v-1.4h1.416zm2.83 0h-1.415v-1.4h1.415zm2.83 0h-1.415v-1.4h1.415zm2.83 0h-1.416v-1.4h1.416zm2.83 0h-1.416v-1.4h1.416zm2.83 0h-1.415v-1.4h1.415zm2.78.02l-.57-.02h-.795v-1.4h.795l.67.024zm2.507.613a7.68 7.68 0 0 0-1.227-.412l.335-1.37a9.12 9.12 0 0 1 1.453.488zm2.166 1.406a7.81 7.81 0 0 0-1.025-.794l.77-1.183a9.26 9.26 0 0 1 1.21.937zm1.588 2.038a8.58 8.58 0 0 0-.7-1.085l1.113-.868a9.19 9.19 0 0 1 .837 1.282zm.828 2.445a7.69 7.69 0 0 0-.311-1.257l1.336-.453c.164.483.287.983.368 1.488zm1.37 2.828l-1.4-.244c.074-.423.114-.858.117-1.3l1.4.01a9.27 9.27 0 0 1-.138 1.524zm-1.023 2.876l-1.23-.7a7.71 7.71 0 0 0 .535-1.179l1.33.473a9.02 9.02 0 0 1-.633 1.394zm-1.9 2.378l-.94-1.053c.323-.288.623-.604.894-.94l1.1.884a9.25 9.25 0 0 1-1.054 1.109zm-2.586 1.624l-.54-1.304a7.79 7.79 0 0 0 1.152-.595l.75 1.195a9.18 9.18 0 0 1-1.361.703zm-2.977.68l-.08-1.4a7.68 7.68 0 0 0 1.282-.182l.315 1.376a9.2 9.2 0 0 1-1.517.214zm-21.273.015h-1.415v-1.4h1.415zm2.83 0h-1.416v-1.4h1.416zm2.83 0h-1.416v-1.4h1.416zm2.83 0h-1.416v-1.4h1.416zm2.83 0h-1.38v-1.4h1.415zm2.83 0h-1.416v-1.4H285zm2.83 0h-1.416v-1.4h1.416zm2.83 0h-1.416v-1.4h1.416v1.4"/><path d="M232.772 82.148h-.706v-1.41h.706v1.41"/></g><path d="M70.266 45.067v-8.412a9.23 9.23 0 0 1 8.647 8.412h-8.647" class="D"/><path d="M77.637 54.8l-.948-1.045a10.55 10.55 0 0 0 3.46-7.803 10.51 10.51 0 0 0-10.018-10.516l.067-1.408c6.372.3 11.363 5.54 11.363 11.923a11.97 11.97 0 0 1-3.924 8.85m-10.2-19.148c-4.768 1.044-8.27 5.328-8.27 10.283 0 5.806 4.724 10.53 10.53 10.53a10.57 10.57 0 0 0 4.55-1.03l-6.8-8.9zm2.26 22.223c-6.584 0-11.94-5.356-11.94-11.94 0-5.93 4.424-11.013 10.3-11.824l.802-.113v12.066l7.514 9.8-.695.402c-1.808 1.046-3.872 1.598-5.97 1.598" class="B"/><path d="M71.21 46.48l4.82 6.214.2-.188a9.22 9.22 0 0 0 2.706-6.026h-7.728" class="C"/><path d="M149.898 92.947h3.494v-3.3h-3.494zm4.905 1.4h-6.316v-6.13h6.316v6.13m3.18-1.4h3.497V85.94h-3.497zm4.908 1.4h-6.32V84.53h6.32v9.828m3.176-1.41h3.496v-17.06h-3.496zm4.907 1.4h-6.32v-19.88h6.32V94.36m3.18-1.413h3.494v-28.26h-3.494zm4.905 1.4h-6.316v-31.08h6.316V94.36" class="B"/><path d="M180.315 53.32h-9.03c-.362 0-.655.293-.655.654v3.752c0 .362.292.653.655.653h3.624l.24.416.65 1.127.652-1.127.24-.416h3.626c.36 0 .654-.292.654-.653v-3.752c0-.362-.294-.654-.654-.654" class="D"/><path d="M178.235 56.6h-4.872v-1.4h4.872v1.4m5.578 37.77h-39.015v-1.4h39.015v1.4" class="B"/><path d="M110 29.374c0 3.507-2.845 6.35-6.354 6.35s-6.352-2.843-6.352-6.35 2.844-6.354 6.352-6.354S110 25.864 110 29.374" class="D"/><g class="B"><path d="M104.342 31.924h-1.41v-4.1l-.8.83-1.016-.977 2.014-2.092 1.214.5v5.86"/><path d="M104.987 32.612h-2.733V31.2h2.733v1.4m-.727-10.86h-1.4v-2.046h1.4v2.046m-5.115 1.432l-1.023-1.77 1.222-.706 1.023 1.77-1.222.706m-2.498 3.08l-1.77-1.02.706-1.224 1.77 1.023-.706 1.22m-.622 3.92H93.98v-1.4h2.044v1.4m-.35 4.728l-.705-1.224 1.77-1.02.705 1.22-1.77 1.023m3.83 3.247l-1.222-.706 1.023-1.77 1.222.706-1.023 1.77m4.94.896h-1.4v-2.046h1.4v2.046m3.506-.99l-1.022-1.767 1.222-.706 1.022 1.767-1.222.706m3.762-3.314l-1.77-1.023.706-1.22 1.77 1.023-.706 1.22m-.442-4.748v-1.4l2.045-.003v1.4l-2.045.003m-.716-3.895l-.706-1.224 1.772-1.02.706 1.22-1.772 1.023m-2.566-3.012l-1.222-.706 1.023-1.774 1.222.706-1.023 1.774"/></g><path d="M280.3 108.885c0 2.82-2.286 5.105-5.104 5.105s-5.106-2.285-5.106-5.105 2.286-5.106 5.106-5.106 5.104 2.285 5.104 5.106" class="D"/><g class="B"><path d="M274.433 111.618l-1.97-2.07 1.022-.973.868.912 2.624-3.2 1.1.894-3.636 4.436M29.246 38.585h-1.4v-4.52h1.4v4.52"/><path d="M30.8 37.033h-4.518v-1.4H30.8v1.4M82.746 4.947h-1.4V.432h1.4v4.515"/><path d="M84.3 3.395h-4.518v-1.4H84.3v1.4m62.816 134.87h-1.4v-4.52h1.4v4.52"/><path d="M148.67 136.712h-4.518v-1.4h4.518v1.4m103.543.665h-1.4v-4.52h1.4v4.52"/><path d="M253.767 135.824h-4.518v-1.4h4.518v1.4M59.113 24.156h-1.4V22.47h1.4v1.686m-2.668 1.684l-1.46-.847.706-1.22 1.46.843-.706 1.224m-.645 2.768l-.705-1.22 1.46-.843.705 1.22-1.46.843m3.554 1.1h-1.4v-1.686h1.4v1.686m2.012-1.298l-1.46-.843.706-1.224 1.46.843-.706 1.224m-.866-2.773l-.706-1.22 1.46-.843.706 1.22-1.46.843m93.707-16.545h-1.4V7.67h1.4v1.4"/><use xlink:href="#B" x="24.628" y="-108.4"/><path d="M150.695 12.592h-1.41v-1.41h1.41v1.41"/><use xlink:href="#B" x="24.626" y="-103.432"/><path d="M154.207 16.102h-1.4v-1.4h1.4v1.4m1.777-.734l-.997-.998.998-.998.997.998-.998.998m1.736-2.776h-1.4v-1.4h1.4v1.4"/><use xlink:href="#B" x="29.592" y="-108.4"/><path d="M38.373 107.376H54.71V84.75H38.373zm16.76 1.41H37.95a.99.99 0 0 1-.987-.989v-23.47a.99.99 0 0 1 .987-.988h17.182a.99.99 0 0 1 .988.988v23.47a.99.99 0 0 1-.988.989"/><path d="M55.132 106.086H37.95a.99.99 0 0 1-.987-.988v-17.9h1.4v17.486H54.7V87.188h1.4v17.9a.99.99 0 0 1-.988.988M41.147 90.048h10.8v-1.68h-10.8zm12.2 1.4h-13.6v-4.502h13.6v4.502m-11.174 3.17H39.94v-1.4h2.234v1.4"/><use xlink:href="#E"/><use xlink:href="#E" x="3.657"/><path d="M53.144 94.618H50.9v-1.4h2.234v1.4m-10.96 2.762H39.94v-1.4h2.234v1.4"/><use xlink:href="#E" y="2.762"/><use xlink:href="#E" x="3.657" y="2.762"/><path d="M53.144 97.38H50.9v-1.4h2.234v1.4m-10.96 2.76H39.94v-1.4h2.234v1.4"/><use xlink:href="#E" y="5.522"/><use xlink:href="#E" x="3.657" y="5.522"/><path d="M53.144 100.14H50.9v-1.4h2.234v1.4m-10.96 2.76H39.94v-1.4h2.234v1.4"/><use xlink:href="#E" y="8.282"/><use xlink:href="#E" x="3.657" y="8.282"/><path d="M53.144 102.9H50.9v-1.4h2.234v1.4m13.44-38.238h-4.717v-1.4h4.717v1.4m-.001 2.638h-4.717v-1.4h4.717v1.4m0 2.638h-4.717v-1.4h4.717v1.4m0 2.638h-4.717v-1.4h4.717v1.4m0 2.637h-1.48v-1.4h1.48v1.4M60.5 69.938h-4.716v-1.4H60.5v1.4m0 2.638h-4.716v-1.4H60.5v1.4m-1.8 2.637h-2.918v-1.4H58.7v1.4"/><path d="M61.6 72.64c-1.578 0-2.86 1.284-2.86 2.86s1.284 2.862 2.86 2.862a2.87 2.87 0 0 0 2.862-2.862c0-1.578-1.284-2.86-2.862-2.86zm0 7.135a4.28 4.28 0 0 1-4.272-4.274 4.28 4.28 0 0 1 4.272-4.272 4.28 4.28 0 0 1 4.274 4.272 4.28 4.28 0 0 1-4.274 4.274m.716-2.627h-1.4v-3.3h1.4v3.3"/></g><path d="M186.4 123.6c0 3.314-2.687 6-6.002 6a6 6 0 0 1-6-6.001c0-3.312 2.686-6 6-6s6.002 2.69 6.002 6" class="C"/><g class="B"><path d="M181.094 126.014h-1.41v-3.787l-.69.715-1.016-.98 1.903-1.976 1.214.5v5.536"/><path d="M181.664 126.7h-2.58v-1.4h2.58v1.4M156.3 45.157L145.894 34.75l-8.165 8.165-.998-.998 9.162-9.164 10.407 10.4 24.47-24.47.998.998L156.3 45.157"/><path d="M181.976 25.4h-1.4v-5.514h-5.512v-1.4h6.923v6.925m-74.963 59.926c-7.297 0-13.233 5.937-13.233 13.233s5.937 13.234 13.233 13.234 13.233-5.936 13.233-13.234a13.25 13.25 0 0 0-13.233-13.233zm0 27.878c-8.075 0-14.645-6.57-14.645-14.645s6.57-14.644 14.645-14.644 14.645 6.57 14.645 14.644-6.57 14.645-14.645 14.645"/><path d="M107.014 85.337c-4.058 0-7.36 5.937-7.36 13.233s3.3 13.234 7.36 13.234 7.354-5.936 7.354-13.234-3.3-13.233-7.354-13.233zm0 27.878c-4.918 0-8.77-6.433-8.77-14.645s3.852-14.644 8.77-14.644 8.765 6.433 8.765 14.644-3.85 14.645-8.765 14.645"/><path d="M107.72 85.355v26.43c6.97-.368 12.528-6.155 12.528-13.215S114.7 85.723 107.72 85.355zm-.706 27.86c-.4 0-.706-.316-.706-.706V84.63c0-.4.316-.706.706-.706 8.075 0 14.645 6.57 14.645 14.644s-6.57 14.645-14.645 14.645"/><path d="M94.478 102.777h25.07a13.11 13.11 0 0 0 .7-4.207 13.12 13.12 0 0 0-.7-4.209h-25.068a13.13 13.13 0 0 0-.699 4.209c0 1.42.234 2.833.697 4.207zm25.567 1.41H93.98c-.294 0-.557-.182-.66-.457-.63-1.677-.95-3.413-.95-5.16s.32-3.487.952-5.163c.104-.275.367-.457.66-.457h26.062c.294 0 .557.182.66.456.633 1.678.954 3.416.954 5.164s-.32 3.484-.954 5.162c-.103.275-.367.457-.66.457"/></g><path d="M67.028 106.585h-1.41v-8.1h1.41v8.1" class="C"/><g class="B"><path d="M63.263 106.522h-1.4v-5.075h1.4v5.075m-3.765.063h-1.4v-2.73h1.4v2.73"/><use xlink:href="#F"/><use xlink:href="#F" x="-3.765"/><use xlink:href="#F" x="-7.53"/></g><path d="M78.322 106.585h-1.41V96.27h1.41v10.315" class="C"/><g class="B"><path d="M74.557 106.585h-1.4v-2.683h1.4v2.683m-3.765 0h-1.4v-5.063h1.4v5.063"/><use xlink:href="#F" x="11.294"/><use xlink:href="#F" x="7.529"/><use xlink:href="#F" x="3.764"/></g><path d="M89.616 106.585h-1.41v-8.1h1.41v8.1" class="C"/><g class="B"><path d="M85.852 106.474h-1.4v-5.618h1.4v5.618m-3.765.11h-1.4V98.2h1.4v8.375"/><use xlink:href="#F" x="22.588"/><use xlink:href="#F" x="18.824"/><use xlink:href="#F" x="15.059"/><path d="M121.744 50.995l-1-.995 4.845-4.88 3.013 2.863 3.044-2.64.924 1.067-4.012 3.477-2.94-2.794-3.872 3.9m-47.792 21.25l-.998-.998L91.692 52.5l3.76 2.357 6.922-4.486.768 1.184-7.676 4.975-3.57-2.238-17.942 17.942"/><path d="M111.817 41.287c-2.355.006-4.546.915-6.2 2.56a8.69 8.69 0 0 0-2.556 6.186 8.68 8.68 0 0 0 2.559 6.185c1.65 1.65 3.85 2.56 6.2 2.56v.706l.015-.706c2.332-.006 4.523-.915 6.168-2.56a8.68 8.68 0 0 0 2.558-6.187c-.002-2.34-.912-4.538-2.562-6.186a8.69 8.69 0 0 0-6.18-2.56zm.003 18.903a10.1 10.1 0 0 1-7.19-2.973 10.08 10.08 0 0 1-2.972-7.182 10.09 10.09 0 0 1 2.969-7.184 10.1 10.1 0 0 1 7.166-2.975c2.737 0 5.287 1.056 7.202 2.972a10.1 10.1 0 0 1 2.975 7.183 10.08 10.08 0 0 1-2.97 7.186 10.1 10.1 0 0 1-7.163 2.974h-.018m-1.12 11.097h2.25v-6.5h-2.25zm3.66 1.4h-5.072v-9.324h5.072V72.7"/><path d="M110.677 63.386l-1.41-.001.001-2.5 5.096.001v2.5h-1.41v-1.1l-2.274-.001v1.1"/><path d="M112.663 61.12H111.252V59.12H112.664l-.001 1.998"/></g><path d="M109.55 54.332l-4.77-1.754.487-1.324 3.89 1.43 5.626-6.018 4.366 2.77-.756 1.19-3.38-2.144-5.467 5.847" class="C"/><path d="M180.53 105.154c5.24.001 10.167 2.042 13.873 5.748a19.48 19.48 0 0 1 5.697 12.529H194.437c-.683-7.067-6.687-12.63-13.908-12.63s-13.227 5.564-13.91 12.632h-5.663a19.48 19.48 0 0 1 5.699-12.529c3.705-3.705 8.632-5.746 13.874-5.747" class="D"/><path d="M200.117 125.85c-.235 4.374-1.9 8.487-4.778 11.8l-4.005-4.004a13.87 13.87 0 0 0 3.13-7.785l5.653-.001" class="C"/><path d="M161.698 126.554c.904 9.667 9.035 17.134 18.83 17.134 4.434-.001 8.694-1.545 12.078-4.364l-3.007-3.007c-2.57 2.028-5.765 3.138-9.065 3.138-7.415 0-13.693-5.614-14.58-12.9zm18.83 18.546c-10.795 0-19.71-8.44-20.294-19.213l-.04-.744 7.055.002.05.652c.524 6.87 6.335 12.25 13.23 12.248 3.234 0 6.225-1.11 8.655-3.213l.496-.43 4.985 4.986-.552.497a20.25 20.25 0 0 1-13.585 5.215" class="B"/><g class="C"><path d="M173.348 113.417h-16.8v-7.553h2.987v-3.535l3.907 3.535h9.907v7.553"/><path d="M159.407 109.547"/></g><path d="M170.898 110.252h-11.5v-1.4h11.5v1.4M141.1 48.368c-2.03 0-4.062-.773-5.608-2.32a7.88 7.88 0 0 1-2.323-5.608c0-2.118.825-4.1 2.323-5.607l.998.995c-1.232 1.235-1.9 2.872-1.9 4.612s.678 3.38 1.9 4.6a6.53 6.53 0 0 0 9.22 0l.998.998c-1.546 1.546-3.577 2.32-5.608 2.32m8.54 22.78h1.116l.17-2.033.526-.1a5.82 5.82 0 0 0 1.956-.755l.435-.266 1.588 1.343.8-.8-1.317-1.556.3-.444c.397-.584.682-1.23.848-1.918l.12-.496 2.074-.173v-1.116l-2.033-.17-.1-.527a5.82 5.82 0 0 0-.755-1.957l-.267-.435 1.344-1.588-.8-.8-1.557 1.317-.443-.3a5.82 5.82 0 0 0-1.918-.848l-.496-.12-.173-2.074h-1.116l-.17 2.034-.527.1a5.82 5.82 0 0 0-1.956.755l-.435.267-1.588-1.344-.8.8 1.318 1.557-.3.443c-.398.585-.683 1.23-.848 1.917l-.12.496-2.073.172v1.116l2.034.17.1.527a5.79 5.79 0 0 0 .755 1.955l.267.435-1.344 1.6.8.8 1.557-1.317.443.3a5.82 5.82 0 0 0 1.918.848l.496.12zm2.414 1.412h-3.714l-.198-2.37a7.22 7.22 0 0 1-1.425-.627l-1.746 1.477-2.625-2.625 1.536-1.815a7.19 7.19 0 0 1-.563-1.451l-2.28-.2v-3.704l2.37-.197a7.22 7.22 0 0 1 .627-1.424l-1.477-1.746 2.626-2.626L147 56.777a7.21 7.21 0 0 1 1.451-.563l.2-2.28h3.712l.198 2.37a7.21 7.21 0 0 1 1.425.627l1.746-1.477 2.626 2.626-1.536 1.814c.24.463.428.948.563 1.452l2.28.2-.001 3.713-2.37.197a7.23 7.23 0 0 1-.627 1.425l1.477 1.746-2.626 2.625-1.815-1.535a7.21 7.21 0 0 1-1.451.563l-.2 2.28m-1.705-11.3c-1.088 0-1.972.885-1.972 1.972s.885 1.972 1.972 1.972 1.972-.885 1.972-1.972-.885-1.972-1.972-1.972zm0 5.355a3.39 3.39 0 0 1-3.383-3.383 3.39 3.39 0 0 1 3.383-3.383 3.39 3.39 0 0 1 3.384 3.383 3.39 3.39 0 0 1-3.384 3.383" class="B"/><path d="M285.795 100.792h7.648c.054-.723.215-1.664.67-2.27 2.822-3.634 3.002-7.095 3.002-7.34a7.49 7.49 0 1 0-14.981 0c0 .244.175 3.704 3 7.34.454.606.61 1.547.66 2.27" class="D"/><g class="B"><path d="M286.94 100.896l-1.483-8.232 1.4-.25 1.483 8.232-1.4.25m5.37.001l-1.4-.25 1.482-8.233 1.4.25-1.482 8.233"/><path d="M292.28 94.3h-.74l-.774-.477-.772.477h-.742l-.772-.477-.772.477h-.742l-1.14-.706.742-1.2.77.476.772-.476h.74l.772.477.772-.477h.74l.774.477.774-.477.74 1.2-1.144.706m1.672 7.286h-8.65v-1.4h8.65v1.4m0 2.276h-8.65v-1.4h8.65v1.4m-1.496 2.278h-5.658v-1.4h5.658v1.4"/><path d="M288.127 102.968h-1.4v-1.986h1.4v1.986m.3-14.73h-6.93v-1.4h6.93v1.4m-8.25-.001h-2.3v-1.4h2.3v1.4m2.004 3.476H271.56v-1.4h10.613v1.4"/></g><g class="C"><path d="M49.746 48.096h13.815c.963 0 1.744-.782 1.744-1.745v-.727c0-.964-.78-1.745-1.744-1.745H49.746v4.218"/><path d="M35.495 47.587h16.942c.964 0 1.745-.594 1.745-1.324v-.552c0-.73-.78-1.323-1.745-1.323H35.495v3.2"/></g><g class="B"><path d="M62.754 48.096h-1.4v-4.5a1.04 1.04 0 0 0-1.039-1.04h-8.23v-1.4h8.23c1.35 0 2.45 1.1 2.45 2.45v4.5M50.4 48.18H49v-4.3h1.4v4.3m-14.16-.01h-1.4v-4.3h1.4v4.3"/><path d="M29.92 46.738v-1.41c.983 0 2.207-.49 2.36-.773l.136-.53.54.023h2.164v1.41h-1.756c-.722.888-2.512 1.28-3.444 1.28"/><path d="M35.12 48.02H32.41l-.136-.53c-.145-.26-1.37-.75-2.353-.75v-1.41c.932 0 2.722.393 3.445 1.282h1.756v1.41"/></g><defs ><path id="B" d="M126.392 118.8l-.998-.998.998-.998.998.998-.998.998"/><path id="C" d="M216.907 113.33h-1.367v-1.41h1.367v1.41"/><path id="D" d="M285.7 75.3h-2.492v-1.41h2.492v1.41"/><path id="E" d="M45.83 94.618h-2.234v-1.41h2.234v1.41"/><path id="F" d="M67.028 109.496h-1.41v-1.52h1.41v1.52"/></defs></svg>